<svg xmlns="http://www.w3.org/2000/svg" xmlns:xlink="http://www.w3.org/1999/xlink" width="500" zoomAndPan="magnify" viewBox="0 0 375 374.999991" height="500" preserveAspectRatio="xMidYMid meet" version="1.2"><defs><clipPath id="ba767aa18f"><path d="M 131.25 117.757812 L 243.75 117.757812 L 243.75 230.257812 L 131.25 230.257812 Z M 131.25 117.757812 "/></clipPath><clipPath id="e0e81c33c8"><path d="M 187.5 117.757812 C 156.433594 117.757812 131.25 142.941406 131.25 174.007812 C 131.25 205.070312 156.433594 230.257812 187.5 230.257812 C 218.566406 230.257812 243.75 205.070312 243.75 174.007812 C 243.75 142.941406 218.566406 117.757812 187.5 117.757812 Z M 187.5 117.757812 "/></clipPath><clipPath id="c2b3b83c3f"><path d="M 159 65.542969 L 226 65.542969 L 226 98 L 159 98 Z M 159 65.542969 "/></clipPath><clipPath id="f6c4ca0544"><path d="M 151 97 L 242 97 L 242 215.542969 L 151 215.542969 Z M 151 97 "/></clipPath><clipPath id="89fa5b0a75"><path d="M 196 111 L 244.703125 111 L 244.703125 215.542969 L 196 215.542969 Z M 196 111 "/></clipPath></defs><g id="1717fe6712"><g clip-rule="nonzero" clip-path="url(#ba767aa18f)"><g clip-rule="nonzero" clip-path="url(#e0e81c33c8)"><path style=" stroke:none;fill-rule:nonzero;fill:#ffde59;fill-opacity:1;" d="M 131.25 117.757812 L 243.75 117.757812 L 243.75 230.257812 L 131.25 230.257812 Z M 131.25 117.757812 "/></g></g><g clip-rule="nonzero" clip-path="url(#c2b3b83c3f)"><path style=" stroke:none;fill-rule:nonzero;fill:#5271ff;fill-opacity:1;" d="M 192.789062 81.601562 C 187.414062 80.761719 177.289062 80.722656 174.058594 81.140625 L 172.375 91.433594 C 176.953125 90.675781 183.253906 90.761719 190.058594 91.851562 C 196.863281 92.984375 202.871094 94.917969 206.945312 97.101562 L 208.792969 85.84375 L 225.804688 82.820312 L 194.386719 65.558594 L 159.105469 71.859375 L 173.722656 79.882812 C 182.039062 78.789062 192.789062 81.601562 192.789062 81.601562 Z M 192.789062 81.601562 "/></g><g clip-rule="nonzero" clip-path="url(#f6c4ca0544)"><path style=" stroke:none;fill-rule:nonzero;fill:#5271ff;fill-opacity:1;" d="M 192.203125 215.085938 C 192.203125 215.085938 196.527344 127.21875 241.050781 108.402344 C 241.050781 108.402344 218.914062 101.511719 180.019531 150.234375 C 167.460938 140.195312 160.28125 121.96875 157.425781 97.144531 C 157.382812 97.144531 129.953125 170.984375 192.203125 215.085938 Z M 192.203125 215.085938 "/></g><path style=" stroke:none;fill-rule:nonzero;fill:#5271ff;fill-opacity:1;" d="M 169.519531 111.132812 C 169.519531 120.457031 177.082031 128.058594 186.449219 128.058594 C 195.8125 128.058594 203.375 120.496094 203.375 111.132812 C 203.375 101.765625 195.8125 94.203125 186.449219 94.203125 C 177.082031 94.203125 169.519531 101.804688 169.519531 111.132812 Z M 169.519531 111.132812 "/><g clip-rule="nonzero" clip-path="url(#89fa5b0a75)"><path style=" stroke:none;fill-rule:nonzero;fill:#5271ff;fill-opacity:1;" d="M 196.191406 215.085938 L 209.882812 183.625 C 211.019531 200.636719 218.832031 215.085938 218.832031 215.085938 C 211.398438 139.734375 244.703125 111.132812 244.703125 111.132812 C 200.433594 134.566406 196.191406 215.085938 196.191406 215.085938 Z M 196.191406 215.085938 "/></g></g></svg>