<svg xmlns="http://www.w3.org/2000/svg" xmlns:xlink="http://www.w3.org/1999/xlink" width="500" zoomAndPan="magnify" viewBox="0 0 375 374.999991" height="500" preserveAspectRatio="xMidYMid meet" version="1.2"><defs><clipPath id="1d19308d83"><path d="M 131.25 117.757812 L 243.75 117.757812 L 243.75 230.257812 L 131.25 230.257812 Z M 131.25 117.757812 "/></clipPath><clipPath id="7e62246102"><path d="M 187.5 117.757812 C 156.433594 117.757812 131.25 142.941406 131.25 174.007812 C 131.25 205.070312 156.433594 230.257812 187.5 230.257812 C 218.566406 230.257812 243.75 205.070312 243.75 174.007812 C 243.75 142.941406 218.566406 117.757812 187.5 117.757812 Z M 187.5 117.757812 "/></clipPath><clipPath id="1ff41a0d7b"><path d="M 159 65.542969 L 226 65.542969 L 226 98 L 159 98 Z M 159 65.542969 "/></clipPath><clipPath id="47ddf79c5b"><path d="M 151 97 L 242 97 L 242 215.542969 L 151 215.542969 Z M 151 97 "/></clipPath><clipPath id="2e2bfd7e5d"><path d="M 196 111 L 244.703125 111 L 244.703125 215.542969 L 196 215.542969 Z M 196 111 "/></clipPath></defs><g id="5b639c8f87"><rect x="0" width="375" y="0" height="374.999991" style="fill:#ffffff;fill-opacity:1;stroke:none;"/><rect x="0" width="375" y="0" height="374.999991" style="fill:#ffffff;fill-opacity:1;stroke:none;"/><g clip-rule="nonzero" clip-path="url(#1d19308d83)"><g clip-rule="nonzero" clip-path="url(#7e62246102)"><path style=" stroke:none;fill-rule:nonzero;fill:#ffde59;fill-opacity:1;" d="M 131.25 117.757812 L 243.75 117.757812 L 243.75 230.257812 L 131.25 230.257812 Z M 131.25 117.757812 "/></g></g><g clip-rule="nonzero" clip-path="url(#1ff41a0d7b)"><path style=" stroke:none;fill-rule:nonzero;fill:#5271ff;fill-opacity:1;" d="M 192.789062 81.601562 C 187.414062 80.761719 177.289062 80.722656 174.058594 81.140625 L 172.375 91.433594 C 176.953125 90.675781 183.253906 90.761719 190.058594 91.851562 C 196.863281 92.984375 202.871094 94.917969 206.945312 97.101562 L 208.792969 85.84375 L 225.804688 82.820312 L 194.386719 65.558594 L 159.105469 71.859375 L 173.722656 79.882812 C 182.039062 78.789062 192.789062 81.601562 192.789062 81.601562 Z M 192.789062 81.601562 "/></g><g clip-rule="nonzero" clip-path="url(#47ddf79c5b)"><path style=" stroke:none;fill-rule:nonzero;fill:#5271ff;fill-opacity:1;" d="M 192.203125 215.085938 C 192.203125 215.085938 196.527344 127.21875 241.050781 108.402344 C 241.050781 108.402344 218.914062 101.511719 180.019531 150.234375 C 167.460938 140.195312 160.28125 121.96875 157.425781 97.144531 C 157.382812 97.144531 129.953125 170.984375 192.203125 215.085938 Z M 192.203125 215.085938 "/></g><path style=" stroke:none;fill-rule:nonzero;fill:#5271ff;fill-opacity:1;" d="M 169.519531 111.132812 C 169.519531 120.457031 177.082031 128.058594 186.449219 128.058594 C 195.8125 128.058594 203.375 120.496094 203.375 111.132812 C 203.375 101.765625 195.8125 94.203125 186.449219 94.203125 C 177.082031 94.203125 169.519531 101.804688 169.519531 111.132812 Z M 169.519531 111.132812 "/><g clip-rule="nonzero" clip-path="url(#2e2bfd7e5d)"><path style=" stroke:none;fill-rule:nonzero;fill:#5271ff;fill-opacity:1;" d="M 196.191406 215.085938 L 209.882812 183.625 C 211.019531 200.636719 218.832031 215.085938 218.832031 215.085938 C 211.398438 139.734375 244.703125 111.132812 244.703125 111.132812 C 200.433594 134.566406 196.191406 215.085938 196.191406 215.085938 Z M 196.191406 215.085938 "/></g><g style="fill:#212e67;fill-opacity:1;"><g transform="translate(138.785152, 279.156104)"><path style="stroke:none" d="M 0.828125 0 L 10.046875 -25.203125 L 15.234375 -25.203125 L 24.4375 0 L 19.546875 0 L 17.53125 -5.828125 L 7.703125 -5.828125 L 5.65625 0 Z M 8.96875 -9.4375 L 16.265625 -9.4375 L 12.59375 -19.90625 Z M 8.96875 -9.4375 "/></g></g><g style="fill:#212e67;fill-opacity:1;"><g transform="translate(164.021203, 279.156104)"><path style="stroke:none" d="M 12.171875 0.4375 C 10.316406 0.4375 8.644531 0.0703125 7.15625 -0.65625 C 5.675781 -1.394531 4.492188 -2.507812 3.609375 -4 C 2.734375 -5.488281 2.296875 -7.367188 2.296875 -9.640625 L 2.296875 -25.203125 L 6.90625 -25.203125 L 6.90625 -9.609375 C 6.90625 -7.640625 7.378906 -6.175781 8.328125 -5.21875 C 9.273438 -4.257812 10.59375 -3.78125 12.28125 -3.78125 C 13.9375 -3.78125 15.242188 -4.257812 16.203125 -5.21875 C 17.160156 -6.175781 17.640625 -7.640625 17.640625 -9.609375 L 17.640625 -25.203125 L 22.25 -25.203125 L 22.25 -9.640625 C 22.25 -7.367188 21.789062 -5.488281 20.875 -4 C 19.96875 -2.507812 18.75 -1.394531 17.21875 -0.65625 C 15.695312 0.0703125 14.015625 0.4375 12.171875 0.4375 Z M 12.171875 0.4375 "/></g></g><g style="fill:#212e67;fill-opacity:1;"><g transform="translate(188.53725, 279.156104)"><path style="stroke:none" d="M 2.453125 0 L 2.453125 -25.203125 L 11.703125 -25.203125 C 13.710938 -25.203125 15.367188 -24.859375 16.671875 -24.171875 C 17.984375 -23.484375 18.960938 -22.554688 19.609375 -21.390625 C 20.265625 -20.234375 20.59375 -18.945312 20.59375 -17.53125 C 20.59375 -16 20.191406 -14.59375 19.390625 -13.3125 C 18.585938 -12.039062 17.332031 -11.117188 15.625 -10.546875 L 20.84375 0 L 15.546875 0 L 10.875 -9.9375 L 7.0625 -9.9375 L 7.0625 0 Z M 7.0625 -13.3125 L 11.40625 -13.3125 C 12.945312 -13.3125 14.078125 -13.679688 14.796875 -14.421875 C 15.515625 -15.171875 15.875 -16.160156 15.875 -17.390625 C 15.875 -18.585938 15.519531 -19.546875 14.8125 -20.265625 C 14.101562 -20.984375 12.957031 -21.34375 11.375 -21.34375 L 7.0625 -21.34375 Z M 7.0625 -13.3125 "/></g></g><g style="fill:#212e67;fill-opacity:1;"><g transform="translate(210.9653, 279.156104)"><path style="stroke:none" d="M 0.828125 0 L 10.046875 -25.203125 L 15.234375 -25.203125 L 24.4375 0 L 19.546875 0 L 17.53125 -5.828125 L 7.703125 -5.828125 L 5.65625 0 Z M 8.96875 -9.4375 L 16.265625 -9.4375 L 12.59375 -19.90625 Z M 8.96875 -9.4375 "/></g></g><g style="fill:#212e67;fill-opacity:1;"><g transform="translate(57.363282, 304.506102)"><path style="stroke:none" d="M 4.46875 0 L 4.46875 -4.78125 L 0.359375 -12.59375 L 2.0625 -12.59375 L 5.21875 -6.234375 L 8.375 -12.59375 L 10.0625 -12.59375 L 5.96875 -4.78125 L 5.96875 0 Z M 4.46875 0 "/></g></g><g style="fill:#212e67;fill-opacity:1;"><g transform="translate(67.785255, 304.506102)"><path style="stroke:none" d="M 5.3125 0.21875 C 4.46875 0.21875 3.707031 0.0234375 3.03125 -0.359375 C 2.363281 -0.742188 1.832031 -1.285156 1.4375 -1.984375 C 1.050781 -2.691406 0.859375 -3.519531 0.859375 -4.46875 C 0.859375 -5.414062 1.054688 -6.238281 1.453125 -6.9375 C 1.847656 -7.632812 2.382812 -8.175781 3.0625 -8.5625 C 3.75 -8.945312 4.507812 -9.140625 5.34375 -9.140625 C 6.1875 -9.140625 6.941406 -8.945312 7.609375 -8.5625 C 8.285156 -8.175781 8.816406 -7.632812 9.203125 -6.9375 C 9.597656 -6.238281 9.796875 -5.414062 9.796875 -4.46875 C 9.796875 -3.519531 9.597656 -2.691406 9.203125 -1.984375 C 8.804688 -1.285156 8.265625 -0.742188 7.578125 -0.359375 C 6.898438 0.0234375 6.144531 0.21875 5.3125 0.21875 Z M 5.3125 -1.078125 C 5.820312 -1.078125 6.300781 -1.203125 6.75 -1.453125 C 7.195312 -1.710938 7.554688 -2.09375 7.828125 -2.59375 C 8.109375 -3.09375 8.25 -3.71875 8.25 -4.46875 C 8.25 -5.207031 8.113281 -5.828125 7.84375 -6.328125 C 7.570312 -6.835938 7.210938 -7.21875 6.765625 -7.46875 C 6.328125 -7.71875 5.851562 -7.84375 5.34375 -7.84375 C 4.832031 -7.84375 4.351562 -7.71875 3.90625 -7.46875 C 3.457031 -7.21875 3.09375 -6.835938 2.8125 -6.328125 C 2.539062 -5.828125 2.40625 -5.207031 2.40625 -4.46875 C 2.40625 -3.71875 2.539062 -3.09375 2.8125 -2.59375 C 3.09375 -2.09375 3.453125 -1.710938 3.890625 -1.453125 C 4.328125 -1.203125 4.800781 -1.078125 5.3125 -1.078125 Z M 5.3125 -1.078125 "/></g></g><g style="fill:#212e67;fill-opacity:1;"><g transform="translate(78.441226, 304.506102)"><path style="stroke:none" d="M 4.5 0.21875 C 3.445312 0.21875 2.609375 -0.0976562 1.984375 -0.734375 C 1.359375 -1.378906 1.046875 -2.367188 1.046875 -3.703125 L 1.046875 -8.921875 L 2.5625 -8.921875 L 2.5625 -3.875 C 2.5625 -2.007812 3.320312 -1.078125 4.84375 -1.078125 C 5.625 -1.078125 6.269531 -1.351562 6.78125 -1.90625 C 7.289062 -2.46875 7.546875 -3.265625 7.546875 -4.296875 L 7.546875 -8.921875 L 9.046875 -8.921875 L 9.046875 0 L 7.6875 0 L 7.578125 -1.609375 C 7.296875 -1.035156 6.882812 -0.585938 6.34375 -0.265625 C 5.800781 0.0546875 5.1875 0.21875 4.5 0.21875 Z M 4.5 0.21875 "/></g></g><g style="fill:#212e67;fill-opacity:1;"><g transform="translate(88.7372, 304.506102)"><path style="stroke:none" d="M 1.234375 0 L 1.234375 -8.921875 L 2.609375 -8.921875 L 2.734375 -7.21875 C 3.015625 -7.800781 3.4375 -8.265625 4 -8.609375 C 4.5625 -8.960938 5.253906 -9.140625 6.078125 -9.140625 L 6.078125 -7.5625 L 5.671875 -7.5625 C 5.140625 -7.5625 4.648438 -7.46875 4.203125 -7.28125 C 3.765625 -7.09375 3.410156 -6.773438 3.140625 -6.328125 C 2.878906 -5.890625 2.75 -5.28125 2.75 -4.5 L 2.75 0 Z M 1.234375 0 "/></g></g><g style="fill:#212e67;fill-opacity:1;"><g transform="translate(95.271181, 304.506102)"><path style="stroke:none" d=""/></g></g><g style="fill:#212e67;fill-opacity:1;"><g transform="translate(100.04117, 304.506102)"><path style="stroke:none" d="M 0.546875 0 L 5.1875 -12.59375 L 6.78125 -12.59375 L 11.40625 0 L 9.8125 0 L 8.65625 -3.234375 L 3.296875 -3.234375 L 2.125 0 Z M 3.75 -4.46875 L 8.203125 -4.46875 L 5.96875 -10.6875 Z M 3.75 -4.46875 "/></g></g><g style="fill:#212e67;fill-opacity:1;"><g transform="translate(111.993138, 304.506102)"><path style="stroke:none" d="M 1.328125 0 L 1.328125 -12.59375 L 2.84375 -12.59375 L 2.84375 0 Z M 1.328125 0 "/></g></g><g style="fill:#212e67;fill-opacity:1;"><g transform="translate(116.169122, 304.506102)"><path style="stroke:none" d="M 1.0625 -4.59375 L 1.0625 -5.875 L 8.1875 -5.875 L 8.1875 -4.59375 Z M 1.0625 -4.59375 "/></g></g><g style="fill:#212e67;fill-opacity:1;"><g transform="translate(125.403095, 304.506102)"><path style="stroke:none" d="M 1.328125 0 L 1.328125 -12.59375 L 5.46875 -12.59375 C 6.457031 -12.59375 7.269531 -12.429688 7.90625 -12.109375 C 8.539062 -11.785156 9.007812 -11.347656 9.3125 -10.796875 C 9.625 -10.242188 9.78125 -9.617188 9.78125 -8.921875 C 9.78125 -8.242188 9.628906 -7.628906 9.328125 -7.078125 C 9.023438 -6.523438 8.554688 -6.082031 7.921875 -5.75 C 7.285156 -5.414062 6.46875 -5.25 5.46875 -5.25 L 2.84375 -5.25 L 2.84375 0 Z M 2.84375 -6.53125 L 5.4375 -6.53125 C 6.445312 -6.53125 7.160156 -6.742188 7.578125 -7.171875 C 8.003906 -7.597656 8.21875 -8.179688 8.21875 -8.921875 C 8.21875 -9.679688 8.003906 -10.273438 7.578125 -10.703125 C 7.160156 -11.128906 6.445312 -11.34375 5.4375 -11.34375 L 2.84375 -11.34375 Z M 2.84375 -6.53125 "/></g></g><g style="fill:#212e67;fill-opacity:1;"><g transform="translate(135.825069, 304.506102)"><path style="stroke:none" d="M 5.3125 0.21875 C 4.46875 0.21875 3.707031 0.0234375 3.03125 -0.359375 C 2.363281 -0.742188 1.832031 -1.285156 1.4375 -1.984375 C 1.050781 -2.691406 0.859375 -3.519531 0.859375 -4.46875 C 0.859375 -5.414062 1.054688 -6.238281 1.453125 -6.9375 C 1.847656 -7.632812 2.382812 -8.175781 3.0625 -8.5625 C 3.75 -8.945312 4.507812 -9.140625 5.34375 -9.140625 C 6.1875 -9.140625 6.941406 -8.945312 7.609375 -8.5625 C 8.285156 -8.175781 8.816406 -7.632812 9.203125 -6.9375 C 9.597656 -6.238281 9.796875 -5.414062 9.796875 -4.46875 C 9.796875 -3.519531 9.597656 -2.691406 9.203125 -1.984375 C 8.804688 -1.285156 8.265625 -0.742188 7.578125 -0.359375 C 6.898438 0.0234375 6.144531 0.21875 5.3125 0.21875 Z M 5.3125 -1.078125 C 5.820312 -1.078125 6.300781 -1.203125 6.75 -1.453125 C 7.195312 -1.710938 7.554688 -2.09375 7.828125 -2.59375 C 8.109375 -3.09375 8.25 -3.71875 8.25 -4.46875 C 8.25 -5.207031 8.113281 -5.828125 7.84375 -6.328125 C 7.570312 -6.835938 7.210938 -7.21875 6.765625 -7.46875 C 6.328125 -7.71875 5.851562 -7.84375 5.34375 -7.84375 C 4.832031 -7.84375 4.351562 -7.71875 3.90625 -7.46875 C 3.457031 -7.21875 3.09375 -6.835938 2.8125 -6.328125 C 2.539062 -5.828125 2.40625 -5.207031 2.40625 -4.46875 C 2.40625 -3.71875 2.539062 -3.09375 2.8125 -2.59375 C 3.09375 -2.09375 3.453125 -1.710938 3.890625 -1.453125 C 4.328125 -1.203125 4.800781 -1.078125 5.3125 -1.078125 Z M 5.3125 -1.078125 "/></g></g><g style="fill:#212e67;fill-opacity:1;"><g transform="translate(146.48104, 304.506102)"><path style="stroke:none" d="M 3.046875 0 L 0.4375 -8.921875 L 1.9375 -8.921875 L 3.828125 -1.921875 L 5.921875 -8.921875 L 7.625 -8.921875 L 9.734375 -1.921875 L 11.609375 -8.921875 L 13.140625 -8.921875 L 10.53125 0 L 8.984375 0 L 6.78125 -7.359375 L 4.59375 0 Z M 3.046875 0 "/></g></g><g style="fill:#212e67;fill-opacity:1;"><g transform="translate(160.052999, 304.506102)"><path style="stroke:none" d="M 5.25 0.21875 C 4.40625 0.21875 3.648438 0.0234375 2.984375 -0.359375 C 2.328125 -0.753906 1.804688 -1.300781 1.421875 -2 C 1.046875 -2.695312 0.859375 -3.519531 0.859375 -4.46875 C 0.859375 -5.40625 1.046875 -6.222656 1.421875 -6.921875 C 1.796875 -7.617188 2.316406 -8.160156 2.984375 -8.546875 C 3.648438 -8.941406 4.421875 -9.140625 5.296875 -9.140625 C 6.160156 -9.140625 6.90625 -8.941406 7.53125 -8.546875 C 8.164062 -8.160156 8.648438 -7.648438 8.984375 -7.015625 C 9.316406 -6.378906 9.484375 -5.695312 9.484375 -4.96875 C 9.484375 -4.832031 9.476562 -4.695312 9.46875 -4.5625 C 9.46875 -4.4375 9.46875 -4.289062 9.46875 -4.125 L 2.359375 -4.125 C 2.390625 -3.4375 2.546875 -2.867188 2.828125 -2.421875 C 3.117188 -1.972656 3.472656 -1.632812 3.890625 -1.40625 C 4.316406 -1.175781 4.769531 -1.0625 5.25 -1.0625 C 5.875 -1.0625 6.394531 -1.203125 6.8125 -1.484375 C 7.238281 -1.773438 7.546875 -2.164062 7.734375 -2.65625 L 9.234375 -2.65625 C 8.992188 -1.832031 8.535156 -1.144531 7.859375 -0.59375 C 7.179688 -0.0507812 6.3125 0.21875 5.25 0.21875 Z M 5.25 -7.859375 C 4.53125 -7.859375 3.890625 -7.640625 3.328125 -7.203125 C 2.773438 -6.765625 2.457031 -6.128906 2.375 -5.296875 L 7.984375 -5.296875 C 7.953125 -6.097656 7.675781 -6.722656 7.15625 -7.171875 C 6.644531 -7.628906 6.007812 -7.859375 5.25 -7.859375 Z M 5.25 -7.859375 "/></g></g><g style="fill:#212e67;fill-opacity:1;"><g transform="translate(170.294968, 304.506102)"><path style="stroke:none" d="M 1.234375 0 L 1.234375 -8.921875 L 2.609375 -8.921875 L 2.734375 -7.21875 C 3.015625 -7.800781 3.4375 -8.265625 4 -8.609375 C 4.5625 -8.960938 5.253906 -9.140625 6.078125 -9.140625 L 6.078125 -7.5625 L 5.671875 -7.5625 C 5.140625 -7.5625 4.648438 -7.46875 4.203125 -7.28125 C 3.765625 -7.09375 3.410156 -6.773438 3.140625 -6.328125 C 2.878906 -5.890625 2.75 -5.28125 2.75 -4.5 L 2.75 0 Z M 1.234375 0 "/></g></g><g style="fill:#212e67;fill-opacity:1;"><g transform="translate(176.828949, 304.506102)"><path style="stroke:none" d="M 5.25 0.21875 C 4.40625 0.21875 3.648438 0.0234375 2.984375 -0.359375 C 2.328125 -0.753906 1.804688 -1.300781 1.421875 -2 C 1.046875 -2.695312 0.859375 -3.519531 0.859375 -4.46875 C 0.859375 -5.40625 1.046875 -6.222656 1.421875 -6.921875 C 1.796875 -7.617188 2.316406 -8.160156 2.984375 -8.546875 C 3.648438 -8.941406 4.421875 -9.140625 5.296875 -9.140625 C 6.160156 -9.140625 6.90625 -8.941406 7.53125 -8.546875 C 8.164062 -8.160156 8.648438 -7.648438 8.984375 -7.015625 C 9.316406 -6.378906 9.484375 -5.695312 9.484375 -4.96875 C 9.484375 -4.832031 9.476562 -4.695312 9.46875 -4.5625 C 9.46875 -4.4375 9.46875 -4.289062 9.46875 -4.125 L 2.359375 -4.125 C 2.390625 -3.4375 2.546875 -2.867188 2.828125 -2.421875 C 3.117188 -1.972656 3.472656 -1.632812 3.890625 -1.40625 C 4.316406 -1.175781 4.769531 -1.0625 5.25 -1.0625 C 5.875 -1.0625 6.394531 -1.203125 6.8125 -1.484375 C 7.238281 -1.773438 7.546875 -2.164062 7.734375 -2.65625 L 9.234375 -2.65625 C 8.992188 -1.832031 8.535156 -1.144531 7.859375 -0.59375 C 7.179688 -0.0507812 6.3125 0.21875 5.25 0.21875 Z M 5.25 -7.859375 C 4.53125 -7.859375 3.890625 -7.640625 3.328125 -7.203125 C 2.773438 -6.765625 2.457031 -6.128906 2.375 -5.296875 L 7.984375 -5.296875 C 7.953125 -6.097656 7.675781 -6.722656 7.15625 -7.171875 C 6.644531 -7.628906 6.007812 -7.859375 5.25 -7.859375 Z M 5.25 -7.859375 "/></g></g><g style="fill:#212e67;fill-opacity:1;"><g transform="translate(187.070919, 304.506102)"><path style="stroke:none" d="M 5.296875 0.21875 C 4.398438 0.21875 3.617188 0.015625 2.953125 -0.390625 C 2.296875 -0.804688 1.78125 -1.363281 1.40625 -2.0625 C 1.039062 -2.769531 0.859375 -3.578125 0.859375 -4.484375 C 0.859375 -5.378906 1.046875 -6.175781 1.421875 -6.875 C 1.796875 -7.582031 2.3125 -8.132812 2.96875 -8.53125 C 3.625 -8.9375 4.40625 -9.140625 5.3125 -9.140625 C 6.039062 -9.140625 6.6875 -8.988281 7.25 -8.6875 C 7.8125 -8.394531 8.25 -7.976562 8.5625 -7.4375 L 8.5625 -12.953125 L 10.078125 -12.953125 L 10.078125 0 L 8.71875 0 L 8.5625 -1.46875 C 8.28125 -1.039062 7.867188 -0.648438 7.328125 -0.296875 C 6.785156 0.046875 6.109375 0.21875 5.296875 0.21875 Z M 5.453125 -1.09375 C 6.054688 -1.09375 6.585938 -1.234375 7.046875 -1.515625 C 7.503906 -1.796875 7.863281 -2.1875 8.125 -2.6875 C 8.382812 -3.195312 8.515625 -3.789062 8.515625 -4.46875 C 8.515625 -5.132812 8.382812 -5.71875 8.125 -6.21875 C 7.863281 -6.726562 7.503906 -7.125 7.046875 -7.40625 C 6.585938 -7.6875 6.054688 -7.828125 5.453125 -7.828125 C 4.867188 -7.828125 4.34375 -7.6875 3.875 -7.40625 C 3.414062 -7.125 3.054688 -6.726562 2.796875 -6.21875 C 2.535156 -5.71875 2.40625 -5.132812 2.40625 -4.46875 C 2.40625 -3.789062 2.535156 -3.195312 2.796875 -2.6875 C 3.054688 -2.1875 3.414062 -1.796875 3.875 -1.515625 C 4.34375 -1.234375 4.867188 -1.09375 5.453125 -1.09375 Z M 5.453125 -1.09375 "/></g></g><g style="fill:#212e67;fill-opacity:1;"><g transform="translate(198.374888, 304.506102)"><path style="stroke:none" d=""/></g></g><g style="fill:#212e67;fill-opacity:1;"><g transform="translate(203.144877, 304.506102)"><path style="stroke:none" d="M 5.34375 0.21875 C 4.414062 0.21875 3.609375 0.0507812 2.921875 -0.28125 C 2.242188 -0.625 1.71875 -1.09375 1.34375 -1.6875 C 0.976562 -2.289062 0.796875 -2.988281 0.796875 -3.78125 L 2.375 -3.78125 C 2.375 -3.289062 2.488281 -2.835938 2.71875 -2.421875 C 2.945312 -2.003906 3.28125 -1.671875 3.71875 -1.421875 C 4.15625 -1.179688 4.695312 -1.0625 5.34375 -1.0625 C 6.195312 -1.0625 6.859375 -1.265625 7.328125 -1.671875 C 7.796875 -2.078125 8.03125 -2.585938 8.03125 -3.203125 C 8.03125 -3.703125 7.921875 -4.101562 7.703125 -4.40625 C 7.484375 -4.71875 7.191406 -4.96875 6.828125 -5.15625 C 6.460938 -5.351562 6.039062 -5.523438 5.5625 -5.671875 C 5.09375 -5.816406 4.601562 -5.976562 4.09375 -6.15625 C 3.113281 -6.488281 2.390625 -6.90625 1.921875 -7.40625 C 1.453125 -7.90625 1.21875 -8.554688 1.21875 -9.359375 C 1.207031 -10.035156 1.363281 -10.632812 1.6875 -11.15625 C 2.007812 -11.675781 2.46875 -12.082031 3.0625 -12.375 C 3.65625 -12.664062 4.363281 -12.8125 5.1875 -12.8125 C 5.988281 -12.8125 6.6875 -12.660156 7.28125 -12.359375 C 7.875 -12.066406 8.332031 -11.65625 8.65625 -11.125 C 8.988281 -10.59375 9.164062 -9.992188 9.1875 -9.328125 L 7.59375 -9.328125 C 7.59375 -9.671875 7.503906 -10.015625 7.328125 -10.359375 C 7.148438 -10.703125 6.875 -10.976562 6.5 -11.1875 C 6.132812 -11.40625 5.675781 -11.515625 5.125 -11.515625 C 4.445312 -11.523438 3.890625 -11.347656 3.453125 -10.984375 C 3.015625 -10.628906 2.796875 -10.132812 2.796875 -9.5 C 2.796875 -8.957031 2.945312 -8.539062 3.25 -8.25 C 3.550781 -7.96875 3.976562 -7.734375 4.53125 -7.546875 C 5.082031 -7.359375 5.71875 -7.144531 6.4375 -6.90625 C 7.039062 -6.695312 7.582031 -6.445312 8.0625 -6.15625 C 8.539062 -5.863281 8.914062 -5.488281 9.1875 -5.03125 C 9.457031 -4.582031 9.59375 -4.003906 9.59375 -3.296875 C 9.59375 -2.691406 9.4375 -2.125 9.125 -1.59375 C 8.8125 -1.0625 8.335938 -0.625 7.703125 -0.28125 C 7.078125 0.0507812 6.289062 0.21875 5.34375 0.21875 Z M 5.34375 0.21875 "/></g></g><g style="fill:#212e67;fill-opacity:1;"><g transform="translate(213.548849, 304.506102)"><path style="stroke:none" d="M 4.765625 0 C 3.953125 0 3.3125 -0.195312 2.84375 -0.59375 C 2.375 -0.988281 2.140625 -1.703125 2.140625 -2.734375 L 2.140625 -7.65625 L 0.59375 -7.65625 L 0.59375 -8.921875 L 2.140625 -8.921875 L 2.34375 -11.0625 L 3.65625 -11.0625 L 3.65625 -8.921875 L 6.28125 -8.921875 L 6.28125 -7.65625 L 3.65625 -7.65625 L 3.65625 -2.734375 C 3.65625 -2.171875 3.769531 -1.789062 4 -1.59375 C 4.226562 -1.394531 4.628906 -1.296875 5.203125 -1.296875 L 6.140625 -1.296875 L 6.140625 0 Z M 4.765625 0 "/></g></g><g style="fill:#212e67;fill-opacity:1;"><g transform="translate(220.514833, 304.506102)"><path style="stroke:none" d="M 4.5 0.21875 C 3.445312 0.21875 2.609375 -0.0976562 1.984375 -0.734375 C 1.359375 -1.378906 1.046875 -2.367188 1.046875 -3.703125 L 1.046875 -8.921875 L 2.5625 -8.921875 L 2.5625 -3.875 C 2.5625 -2.007812 3.320312 -1.078125 4.84375 -1.078125 C 5.625 -1.078125 6.269531 -1.351562 6.78125 -1.90625 C 7.289062 -2.46875 7.546875 -3.265625 7.546875 -4.296875 L 7.546875 -8.921875 L 9.046875 -8.921875 L 9.046875 0 L 7.6875 0 L 7.578125 -1.609375 C 7.296875 -1.035156 6.882812 -0.585938 6.34375 -0.265625 C 5.800781 0.0546875 5.1875 0.21875 4.5 0.21875 Z M 4.5 0.21875 "/></g></g><g style="fill:#212e67;fill-opacity:1;"><g transform="translate(230.810807, 304.506102)"><path style="stroke:none" d="M 5.296875 0.21875 C 4.398438 0.21875 3.617188 0.015625 2.953125 -0.390625 C 2.296875 -0.804688 1.78125 -1.363281 1.40625 -2.0625 C 1.039062 -2.769531 0.859375 -3.578125 0.859375 -4.484375 C 0.859375 -5.378906 1.046875 -6.175781 1.421875 -6.875 C 1.796875 -7.582031 2.3125 -8.132812 2.96875 -8.53125 C 3.625 -8.9375 4.40625 -9.140625 5.3125 -9.140625 C 6.039062 -9.140625 6.6875 -8.988281 7.25 -8.6875 C 7.8125 -8.394531 8.25 -7.976562 8.5625 -7.4375 L 8.5625 -12.953125 L 10.078125 -12.953125 L 10.078125 0 L 8.71875 0 L 8.5625 -1.46875 C 8.28125 -1.039062 7.867188 -0.648438 7.328125 -0.296875 C 6.785156 0.046875 6.109375 0.21875 5.296875 0.21875 Z M 5.453125 -1.09375 C 6.054688 -1.09375 6.585938 -1.234375 7.046875 -1.515625 C 7.503906 -1.796875 7.863281 -2.1875 8.125 -2.6875 C 8.382812 -3.195312 8.515625 -3.789062 8.515625 -4.46875 C 8.515625 -5.132812 8.382812 -5.71875 8.125 -6.21875 C 7.863281 -6.726562 7.503906 -7.125 7.046875 -7.40625 C 6.585938 -7.6875 6.054688 -7.828125 5.453125 -7.828125 C 4.867188 -7.828125 4.34375 -7.6875 3.875 -7.40625 C 3.414062 -7.125 3.054688 -6.726562 2.796875 -6.21875 C 2.535156 -5.71875 2.40625 -5.132812 2.40625 -4.46875 C 2.40625 -3.789062 2.535156 -3.195312 2.796875 -2.6875 C 3.054688 -2.1875 3.414062 -1.796875 3.875 -1.515625 C 4.34375 -1.234375 4.867188 -1.09375 5.453125 -1.09375 Z M 5.453125 -1.09375 "/></g></g><g style="fill:#212e67;fill-opacity:1;"><g transform="translate(242.114776, 304.506102)"><path style="stroke:none" d="M 2.21875 3.953125 L 4.421875 -0.859375 L 3.90625 -0.859375 L 0.359375 -8.921875 L 2 -8.921875 L 4.953125 -1.984375 L 8.078125 -8.921875 L 9.640625 -8.921875 L 3.796875 3.953125 Z M 2.21875 3.953125 "/></g></g><g style="fill:#212e67;fill-opacity:1;"><g transform="translate(252.12276, 304.506102)"><path style="stroke:none" d=""/></g></g><g style="fill:#212e67;fill-opacity:1;"><g transform="translate(256.892749, 304.506102)"><path style="stroke:none" d="M 1.328125 0 L 1.328125 -12.59375 L 5.46875 -12.59375 C 6.457031 -12.59375 7.269531 -12.429688 7.90625 -12.109375 C 8.539062 -11.785156 9.007812 -11.347656 9.3125 -10.796875 C 9.625 -10.242188 9.78125 -9.617188 9.78125 -8.921875 C 9.78125 -8.242188 9.628906 -7.628906 9.328125 -7.078125 C 9.023438 -6.523438 8.554688 -6.082031 7.921875 -5.75 C 7.285156 -5.414062 6.46875 -5.25 5.46875 -5.25 L 2.84375 -5.25 L 2.84375 0 Z M 2.84375 -6.53125 L 5.4375 -6.53125 C 6.445312 -6.53125 7.160156 -6.742188 7.578125 -7.171875 C 8.003906 -7.597656 8.21875 -8.179688 8.21875 -8.921875 C 8.21875 -9.679688 8.003906 -10.273438 7.578125 -10.703125 C 7.160156 -11.128906 6.445312 -11.34375 5.4375 -11.34375 L 2.84375 -11.34375 Z M 2.84375 -6.53125 "/></g></g><g style="fill:#212e67;fill-opacity:1;"><g transform="translate(267.314699, 304.506102)"><path style="stroke:none" d="M 4.21875 0.21875 C 3.46875 0.21875 2.847656 0.09375 2.359375 -0.15625 C 1.867188 -0.414062 1.503906 -0.753906 1.265625 -1.171875 C 1.023438 -1.585938 0.90625 -2.039062 0.90625 -2.53125 C 0.90625 -3.445312 1.25 -4.148438 1.9375 -4.640625 C 2.632812 -5.128906 3.582031 -5.375 4.78125 -5.375 L 7.203125 -5.375 L 7.203125 -5.484375 C 7.203125 -6.265625 6.992188 -6.851562 6.578125 -7.25 C 6.171875 -7.65625 5.628906 -7.859375 4.953125 -7.859375 C 4.359375 -7.859375 3.847656 -7.710938 3.421875 -7.421875 C 3.003906 -7.128906 2.738281 -6.703125 2.625 -6.140625 L 1.078125 -6.140625 C 1.140625 -6.785156 1.359375 -7.328125 1.734375 -7.765625 C 2.109375 -8.210938 2.578125 -8.550781 3.140625 -8.78125 C 3.710938 -9.019531 4.316406 -9.140625 4.953125 -9.140625 C 6.203125 -9.140625 7.140625 -8.804688 7.765625 -8.140625 C 8.398438 -7.472656 8.71875 -6.585938 8.71875 -5.484375 L 8.71875 0 L 7.359375 0 L 7.265625 -1.609375 C 7.015625 -1.097656 6.644531 -0.664062 6.15625 -0.3125 C 5.675781 0.0390625 5.03125 0.21875 4.21875 0.21875 Z M 4.453125 -1.0625 C 5.023438 -1.0625 5.515625 -1.210938 5.921875 -1.515625 C 6.335938 -1.816406 6.65625 -2.207031 6.875 -2.6875 C 7.09375 -3.164062 7.203125 -3.664062 7.203125 -4.1875 L 7.203125 -4.21875 L 4.90625 -4.21875 C 4.019531 -4.21875 3.394531 -4.0625 3.03125 -3.75 C 2.664062 -3.445312 2.484375 -3.066406 2.484375 -2.609375 C 2.484375 -2.140625 2.65625 -1.765625 3 -1.484375 C 3.34375 -1.203125 3.828125 -1.0625 4.453125 -1.0625 Z M 4.453125 -1.0625 "/></g></g><g style="fill:#212e67;fill-opacity:1;"><g transform="translate(277.052682, 304.506102)"><path style="stroke:none" d="M 1.234375 0 L 1.234375 -8.921875 L 2.609375 -8.921875 L 2.734375 -7.21875 C 3.015625 -7.800781 3.4375 -8.265625 4 -8.609375 C 4.5625 -8.960938 5.253906 -9.140625 6.078125 -9.140625 L 6.078125 -7.5625 L 5.671875 -7.5625 C 5.140625 -7.5625 4.648438 -7.46875 4.203125 -7.28125 C 3.765625 -7.09375 3.410156 -6.773438 3.140625 -6.328125 C 2.878906 -5.890625 2.75 -5.28125 2.75 -4.5 L 2.75 0 Z M 1.234375 0 "/></g></g><g style="fill:#212e67;fill-opacity:1;"><g transform="translate(283.586663, 304.506102)"><path style="stroke:none" d="M 4.765625 0 C 3.953125 0 3.3125 -0.195312 2.84375 -0.59375 C 2.375 -0.988281 2.140625 -1.703125 2.140625 -2.734375 L 2.140625 -7.65625 L 0.59375 -7.65625 L 0.59375 -8.921875 L 2.140625 -8.921875 L 2.34375 -11.0625 L 3.65625 -11.0625 L 3.65625 -8.921875 L 6.28125 -8.921875 L 6.28125 -7.65625 L 3.65625 -7.65625 L 3.65625 -2.734375 C 3.65625 -2.171875 3.769531 -1.789062 4 -1.59375 C 4.226562 -1.394531 4.628906 -1.296875 5.203125 -1.296875 L 6.140625 -1.296875 L 6.140625 0 Z M 4.765625 0 "/></g></g><g style="fill:#212e67;fill-opacity:1;"><g transform="translate(290.552659, 304.506102)"><path style="stroke:none" d="M 1.234375 0 L 1.234375 -8.921875 L 2.609375 -8.921875 L 2.703125 -7.328125 C 2.984375 -7.890625 3.394531 -8.332031 3.9375 -8.65625 C 4.476562 -8.976562 5.09375 -9.140625 5.78125 -9.140625 C 6.832031 -9.140625 7.671875 -8.816406 8.296875 -8.171875 C 8.929688 -7.535156 9.25 -6.550781 9.25 -5.21875 L 9.25 0 L 7.734375 0 L 7.734375 -5.0625 C 7.734375 -6.914062 6.96875 -7.84375 5.4375 -7.84375 C 4.664062 -7.84375 4.023438 -7.5625 3.515625 -7 C 3.003906 -6.445312 2.75 -5.65625 2.75 -4.625 L 2.75 0 Z M 1.234375 0 "/></g></g><g style="fill:#212e67;fill-opacity:1;"><g transform="translate(300.848633, 304.506102)"><path style="stroke:none" d="M 5.25 0.21875 C 4.40625 0.21875 3.648438 0.0234375 2.984375 -0.359375 C 2.328125 -0.753906 1.804688 -1.300781 1.421875 -2 C 1.046875 -2.695312 0.859375 -3.519531 0.859375 -4.46875 C 0.859375 -5.40625 1.046875 -6.222656 1.421875 -6.921875 C 1.796875 -7.617188 2.316406 -8.160156 2.984375 -8.546875 C 3.648438 -8.941406 4.421875 -9.140625 5.296875 -9.140625 C 6.160156 -9.140625 6.90625 -8.941406 7.53125 -8.546875 C 8.164062 -8.160156 8.648438 -7.648438 8.984375 -7.015625 C 9.316406 -6.378906 9.484375 -5.695312 9.484375 -4.96875 C 9.484375 -4.832031 9.476562 -4.695312 9.46875 -4.5625 C 9.46875 -4.4375 9.46875 -4.289062 9.46875 -4.125 L 2.359375 -4.125 C 2.390625 -3.4375 2.546875 -2.867188 2.828125 -2.421875 C 3.117188 -1.972656 3.472656 -1.632812 3.890625 -1.40625 C 4.316406 -1.175781 4.769531 -1.0625 5.25 -1.0625 C 5.875 -1.0625 6.394531 -1.203125 6.8125 -1.484375 C 7.238281 -1.773438 7.546875 -2.164062 7.734375 -2.65625 L 9.234375 -2.65625 C 8.992188 -1.832031 8.535156 -1.144531 7.859375 -0.59375 C 7.179688 -0.0507812 6.3125 0.21875 5.25 0.21875 Z M 5.25 -7.859375 C 4.53125 -7.859375 3.890625 -7.640625 3.328125 -7.203125 C 2.773438 -6.765625 2.457031 -6.128906 2.375 -5.296875 L 7.984375 -5.296875 C 7.953125 -6.097656 7.675781 -6.722656 7.15625 -7.171875 C 6.644531 -7.628906 6.007812 -7.859375 5.25 -7.859375 Z M 5.25 -7.859375 "/></g></g><g style="fill:#212e67;fill-opacity:1;"><g transform="translate(311.090591, 304.506102)"><path style="stroke:none" d="M 1.234375 0 L 1.234375 -8.921875 L 2.609375 -8.921875 L 2.734375 -7.21875 C 3.015625 -7.800781 3.4375 -8.265625 4 -8.609375 C 4.5625 -8.960938 5.253906 -9.140625 6.078125 -9.140625 L 6.078125 -7.5625 L 5.671875 -7.5625 C 5.140625 -7.5625 4.648438 -7.46875 4.203125 -7.28125 C 3.765625 -7.09375 3.410156 -6.773438 3.140625 -6.328125 C 2.878906 -5.890625 2.75 -5.28125 2.75 -4.5 L 2.75 0 Z M 1.234375 0 "/></g></g></g></svg>